<?xml version="1.0" encoding="UTF-8" standalone="no"?>
<svg
   id="Layer_6_copy"
   version="1.1"
   viewBox="0 0 554.24 690.73"
   sodipodi:docname="logoandtext.svg"
   inkscape:version="1.4 (e7c3feb100, 2024-10-09)"
   xmlns:inkscape="http://www.inkscape.org/namespaces/inkscape"
   xmlns:sodipodi="http://sodipodi.sourceforge.net/DTD/sodipodi-0.dtd"
   xmlns="http://www.w3.org/2000/svg"
   xmlns:svg="http://www.w3.org/2000/svg">
  <sodipodi:namedview
     id="namedview23"
     pagecolor="#505050"
     bordercolor="#eeeeee"
     borderopacity="1"
     inkscape:showpageshadow="0"
     inkscape:pageopacity="0"
     inkscape:pagecheckerboard="0"
     inkscape:deskcolor="#505050"
     inkscape:zoom="0.71990855"
     inkscape:cx="61.813406"
     inkscape:cy="391.71642"
     inkscape:window-width="1440"
     inkscape:window-height="891"
     inkscape:window-x="0"
     inkscape:window-y="0"
     inkscape:window-maximized="1"
     inkscape:current-layer="Layer_6_copy" />
  <!-- Generator: Adobe Illustrator 29.0.0, SVG Export Plug-In . SVG Version: 2.1.0 Build 186)  -->
  <defs
     id="defs1">
    <style
       id="style1">
       #g2 {
        fill: #fff
       }
       
       #rect8, #rect9, rect6 {
        fill: #fff
       }
       
      .st0, .st1 {
        fill: #ed2024;
      }

      .st2 {
        fill: #fff;
      }
      
      .st3 {
        fill: #fff;
      }

      .st4, .st5, .st6 {
        fill: #020817;
      }

      .st5 {
        stroke: #ed1c24;
        stroke-width: 2px;
      }

      .st5, .st1, .st3, .st7, .st6 {
        stroke-miterlimit: 10;
      }

      .st1, .st3, .st7 {
        stroke: #fff;
      }

      .st1, .st3, .st7, .st6 {
        stroke-width: 3px;
      }

      .st7 {
        fill: none;
      }

      .st6 {
        stroke: #fff;
      }
    </style>
  </defs>
  <g
     id="g12">
    <g
       id="g2">
      <path
         d="M469.51,296.98s1.91,56.33-25.61,63.06c-27.52,6.73-61.45-11.01-45.86-52.28,0,0,27.06-64.66,26.14-94.01-.92-29.35-25.22-127.03-109.15-155.92,0,0,56.87,102.73-66.04,187.57,0,0-51.36-62.83-14.68-147.21,0,0-55.03,27.06-76.59,65.12s-23.52,57.93-23.85,78.42c-.16,10.01,3.45,30.5,16.75,49.3,13.3,18.8,24.06,43.34,1.59,58.93-22.47,15.59-60.54,21.55-63.52-52.97,0,0-79.8,98.37,33.02,182.98,1.41,1.06,2.8,2.07,4.18,3.08,1.22.89,2.44,1.77,3.65,2.63,106.8,76.05,144.2,18.06,144.2,5.3,0,0-38.52,27.52-59.16-4.82-20.64-32.33,61.09-85.45,64.51-115.72,3.42,30.27,85.15,83.39,64.51,115.72-20.64,32.33-59.16,4.82-59.16,4.82,0,11.55,30.64,60.16,115.64,12.89,0,0,0,0,.01,0,2.84-1.58,5.75-3.27,8.72-5.07.09-.05.18-.11.27-.16,2.93-1.78,5.92-3.68,8.97-5.69.11-.07.22-.14.33-.21,2.02-1.34,4.07-2.72,6.15-4.16.03-.02.05-.04.08-.06.1-.07.2-.13.29-.2.81-.56,1.62-1.13,2.43-1.7,0,0,0,0,0,0,.98-.69,1.96-1.38,2.94-2.1,0,0,0,0,0,0,.52-.37,1.03-.74,1.55-1.12.45-.33.9-.66,1.34-.99,0,0,0,0,0,0,1.09-.8,2.18-1.59,3.28-2.42,112.82-84.61,33.02-182.98,33.02-182.98Z"
         id="path1" />
    </g>
    <path
       class="st4"
       d="M124.3,519c27.06,21.97,28.77-7.06,28.77-7.06l142.64-175.71c146.71-98.87,190.7-226.18,189.46-233.39-1.24-7.21-11.09-14.72-11.09-14.72l.07.06s-9.38-8.1-16.68-7.83c-7.31.27-122.86,69.49-189.46,233.39l-142.64,175.71s-28.06,7.64-1,29.61l-.07-.06Z"
       id="path3" />
    <path
       class="st0"
       d="M295.71,336.23c146.71-98.87,190.7-226.18,189.46-233.39-1.24-7.21-11.09-14.72-11.09-14.72l.07.06s-9.38-8.1-16.68-7.83c-7.31.27-122.86,69.49-189.46,233.39"
       id="path4" />
    <path
       class="st7"
       d="M124.3,519c27.06,21.97,28.77-7.06,28.77-7.06l142.64-175.71c146.71-98.87,190.7-226.18,189.46-233.39-1.24-7.21-11.09-14.72-11.09-14.72l.07.06s-9.38-8.1-16.68-7.83c-7.31.27-122.86,69.49-189.46,233.39l-142.64,175.71s-28.06,7.64-1,29.61l-.07-.06Z"
       id="path5" />
    <rect
       x="257.44"
       y="323.21"
       width="37.45"
       height="16.97"
       transform="translate(270.8 -99.89) rotate(39.07)"
       id="rect5" />
    <rect
       x="127.03"
       y="485.66"
       width="33.94"
       height="16.97"
       transform="translate(343.64 19.74) rotate(39.07)"
       id="rect6" />
    <path
       class="st4"
       d="M433.49,519c-27.06,21.97-28.77-7.06-28.77-7.06l-142.64-175.71C115.37,237.36,71.38,110.04,72.62,102.84c1.24-7.21,11.09-14.72,11.09-14.72l-.07.06s9.38-8.1,16.68-7.83c7.31.27,122.86,69.49,189.46,233.39l142.64,175.71s28.06,7.64,1,29.61l.07-.06Z"
       id="path6" />
    <path
       class="st0"
       d="M262.08,336.23C115.37,237.36,71.38,110.04,72.62,102.84c1.24-7.21,11.09-14.72,11.09-14.72l-.07.06s9.38-8.1,16.68-7.83,122.86,69.49,189.46,233.39"
       id="path7" />
    <path
       class="st7"
       d="M433.49,519c-27.06,21.97-28.77-7.06-28.77-7.06l-142.64-175.71C115.37,237.36,71.38,110.04,72.62,102.84c1.24-7.21,11.09-14.72,11.09-14.72l-.07.06s9.38-8.1,16.68-7.83c7.31.27,122.86,69.49,189.46,233.39l142.64,175.71s28.06,7.64,1,29.61l.07-.06Z"
       id="path8" />
    <rect
       x="262.89"
       y="323.21"
       width="37.45"
       height="16.97"
       transform="translate(709.3 411.72) rotate(140.93)"
       id="rect8" />
    <rect
       x="396.82"
       y="485.66"
       width="33.94"
       height="16.97"
       transform="translate(1046.48 617) rotate(140.93)"
       id="rect9" />
    <path
       class="st3"
       d="M100.59,81.65c-1.24,7.21-11.09,14.72-11.09,14.72l.07-.06s-9.38,8.1-16.68,7.83h0c1.24-7.2,11.09-14.71,11.09-14.71l-.07.06s9.38-8.1,16.68-7.83"
       id="path9" />
    <path
       class="st3"
       d="M455.89,81.65c1.24,7.21,11.09,14.72,11.09,14.72l-.07-.06s9.38,8.1,16.68,7.83h0c-1.24-7.2-11.09-14.71-11.09-14.71l.07.06s-9.38-8.1-16.68-7.83"
       id="path10" />
    <circle
       class="st1"
       cx="264.29"
       cy="39.33"
       r="23.55"
       id="circle10" />
    <circle
       class="st1"
       cx="96.32"
       cy="260.46"
       r="23.55"
       id="circle11" />
    <circle
       class="st1"
       cx="457.09"
       cy="260.46"
       r="23.55"
       id="circle12" />
  </g>
  <g
     id="g13">
    <rect
       class="st6"
       x="21.78"
       y="501.67"
       width="69.42"
       height="97"
       rx="6.53"
       ry="6.53"
       transform="translate(-47.74 7.02) rotate(-5)"
       id="rect12" />
    <rect
       class="st5"
       x="27.45"
       y="507.34"
       width="58.08"
       height="85.66"
       transform="translate(-47.74 7.02) rotate(-5)"
       id="rect13" />
    <path
       class="st2"
       d="M36.44,589.23l-6.48-74.04,13.32-1.17,5.37,61.41,33.24-2.91,1.1,12.63-46.56,4.07Z"
       id="path13" />
  </g>
  <g
     id="g15">
    <rect
       class="st6"
       x="199.3"
       y="578.36"
       width="69.42"
       height="97"
       rx="6.53"
       ry="6.53"
       transform="translate(-53.74 22.78) rotate(-5)"
       id="rect14" />
    <rect
       class="st5"
       x="204.97"
       y="584.03"
       width="58.08"
       height="85.66"
       transform="translate(-53.74 22.78) rotate(-5)"
       id="rect15" />
    <path
       class="st2"
       d="M213.97,665.92l-6.48-74.04,14.53-1.27,13.17,49.79,4.26-51.32,14.6-1.28,6.48,74.04-9.05.79-5.1-58.33-4.49,59.17-9.35.82-14.63-57.5,5.1,58.33-9.05.79Z"
       id="path15" />
  </g>
  <g
     id="g17">
    <rect
       class="st6"
       x="110.54"
       y="540.02"
       width="69.42"
       height="97"
       rx="6.53"
       ry="6.53"
       transform="translate(51.85 -10.42) rotate(5)"
       id="rect16" />
    <rect
       class="st5"
       x="116.21"
       y="545.69"
       width="58.08"
       height="85.66"
       transform="translate(51.85 -10.42) rotate(5)"
       id="rect17" />
    <path
       class="st2"
       d="M125.21,549.46l11.75,1.03-3.45,39.43c-.54,6.13-.74,10.13-.61,12.01.24,3.26,1.26,5.85,3.07,7.77,1.81,1.93,4.32,3.03,7.53,3.31,2.72.24,5-.19,6.83-1.28,1.83-1.09,3.15-2.71,3.98-4.86.83-2.15,1.55-6.84,2.19-14.09l3.52-40.27,11.75,1.03-3.35,38.24c-.85,9.77-1.98,16.78-3.38,21.05-1.4,4.26-4.01,7.59-7.82,9.97-3.81,2.39-8.65,3.32-14.51,2.81-6.09-.53-10.74-2.07-13.96-4.6-3.22-2.53-5.42-5.89-6.6-10.09-1.18-4.19-1.3-11.73-.34-22.62l3.4-38.83Z"
       id="path17" />
  </g>
  <g
     id="g19">
    <rect
       class="st6"
       x="288.07"
       y="578.36"
       width="69.42"
       height="97"
       rx="6.53"
       ry="6.53"
       transform="translate(55.86 -25.75) rotate(5)"
       id="rect18" />
    <rect
       class="st5"
       x="293.74"
       y="584.03"
       width="58.08"
       height="85.66"
       transform="translate(55.86 -25.75) rotate(5)"
       id="rect19" />
    <path
       class="st2"
       d="M342.81,665.92l-10.15-.89-2.59-17.12-18.56-1.62-5.3,16.43-9.95-.87,24.54-72.46,9.92.87,12.11,75.67ZM328.15,635.12l-4-28.04-8.69,26.93,12.69,1.11Z"
       id="path19" />
  </g>
  <g
     id="g21">
    <rect
       class="st6"
       x="376.83"
       y="540.02"
       width="69.42"
       height="97"
       rx="6.53"
       ry="6.53"
       transform="translate(-49.73 38.11) rotate(-5)"
       id="rect20" />
    <rect
       class="st5"
       x="382.5"
       y="545.69"
       width="58.08"
       height="85.66"
       transform="translate(-49.73 38.11) rotate(-5)"
       id="rect21" />
    <path
       class="st2"
       d="M425.2,596.87l10.84,3.53c-.93,8.15-3.13,14.24-6.6,18.27-3.47,4.03-7.98,6.28-13.52,6.77-6.97.61-12.87-1.84-17.72-7.36-5.58-6.37-8.87-15.33-9.88-26.89-1.07-12.21.6-21.99,5.01-29.33,3.84-6.37,9.44-9.88,16.8-10.52,5.99-.52,11.21,1.28,15.63,5.42,3.16,2.94,5.68,7.49,7.56,13.66l-10.37,4.35c-1.02-3.81-2.64-6.67-4.86-8.56-2.21-1.89-4.7-2.71-7.47-2.47-3.95.35-7.01,2.52-9.17,6.51-2.16,4-2.87,10.34-2.1,19.03s2.57,15.33,5.33,18.92c2.76,3.6,6.09,5.23,9.97,4.89,2.85-.25,5.2-1.68,7.06-4.28,1.86-2.61,3.02-6.59,3.48-11.94Z"
       id="path21" />
  </g>
  <g
     id="g23">
    <rect
       class="st6"
       x="465.59"
       y="501.67"
       width="69.42"
       height="97"
       rx="6.53"
       ry="6.53"
       transform="translate(49.85 -41.51) rotate(5)"
       id="rect22" />
    <rect
       class="st5"
       x="471.26"
       y="507.34"
       width="58.08"
       height="85.66"
       transform="translate(49.85 -41.51) rotate(5)"
       id="rect23" />
    <path
       class="st2"
       d="M475.93,560.59l11.41-.38c.47,9.26,4.23,14.2,11.28,14.82,3.49.31,6.32-.39,8.49-2.09,2.17-1.7,3.37-3.93,3.61-6.69.14-1.63-.09-3.04-.69-4.24-.6-1.2-1.58-2.23-2.95-3.09s-4.72-2.39-10.07-4.59c-4.79-1.96-8.25-3.93-10.38-5.92s-3.74-4.5-4.84-7.53c-1.1-3.03-1.5-6.22-1.2-9.57.34-3.9,1.51-7.34,3.52-10.31,2-2.97,4.6-5.12,7.79-6.45,3.19-1.33,7.02-1.8,11.5-1.4,6.74.59,11.83,2.92,15.28,7,3.45,4.08,4.99,9.61,4.6,16.59l-11.64-.38c-.17-3.89-1.03-6.67-2.58-8.35-1.55-1.68-3.88-2.65-7-2.93s-5.57.18-7.37,1.37c-1.8,1.18-2.79,2.77-2.96,4.75s.45,3.65,1.86,5.12c1.41,1.46,4.8,3.24,10.15,5.31,5.66,2.24,9.7,4.42,12.12,6.55,2.42,2.13,4.18,4.76,5.29,7.89,1.1,3.13,1.47,6.84,1.09,11.14-.54,6.22-2.87,11.28-6.97,15.18-4.1,3.91-10.13,5.51-18.07,4.82-14.04-1.23-21.14-10.1-21.3-26.62Z"
       id="path23" />
  </g>
</svg>
