<?xml version="1.0" encoding="UTF-8" standalone="no"?>
<svg
   id="Layer_1"
   version="1.1"
   viewBox="0 0 79.522082 667.55829"
   width="79.522087"
   height="667.55829"
   xmlns="http://www.w3.org/2000/svg"
   xmlns:svg="http://www.w3.org/2000/svg">
  <!-- Generator: Adobe Illustrator 29.0.0, SVG Export Plug-In . SVG Version: 2.1.0 Build 186)  -->
  <defs
     id="defs1">
    <style
       id="style1">
      .st0 {
        fill: #231f20;
      }

      .st1 {
        stroke: #ed1c24;
        stroke-width: 2px;
      }

      .st1, .st2 {
        fill: #fff;
        stroke-miterlimit: 10;
      }

      .st2 {
        stroke: #231f20;
        stroke-width: 3px;
      }
    </style>
  </defs>
  <g
     id="g2"
     transform="translate(-35.834994,-23.705252)">
    <rect
       class="st2"
       x="40.889999"
       y="27.5"
       width="69.419998"
       height="97"
       rx="6.5300002"
       ry="6.5300002"
       transform="rotate(-5,75.618953,76.044937)"
       id="rect1" />
    <rect
       class="st1"
       x="46.549999"
       y="33.169998"
       width="58.080002"
       height="85.660004"
       transform="rotate(-5,75.618953,76.044937)"
       id="rect2" />
    <path
       class="st0"
       d="m 55.55,115.06 -6.48,-74.04 13.32,-1.17 5.37,61.41 33.24,-2.91 1.1,12.63 -46.56,4.07 z"
       id="path2" />
  </g>
  <g
     id="g4"
     transform="translate(-213.35971,201.48281)">
    <rect
       class="st2"
       x="218.41"
       y="27.5"
       width="69.419998"
       height="97"
       rx="6.5300002"
       ry="6.5300002"
       transform="rotate(-5,253.11958,75.992657)"
       id="rect3" />
    <rect
       class="st1"
       x="224.08"
       y="33.169998"
       width="58.080002"
       height="85.660004"
       transform="rotate(-5,253.11958,75.992657)"
       id="rect4" />
    <path
       class="st0"
       d="m 233.08,115.06 -6.48,-74.04 14.53,-1.27 13.17,49.79 4.26,-51.32 14.6,-1.28 6.48,74.04 -9.05,0.79 -5.1,-58.33 -4.49,59.17 -9.35,0.82 -14.63,-57.5 5.1,58.33 -9.05,0.79 z"
       id="path4" />
  </g>
  <g
     id="g6"
     transform="matrix(1,0,0,0.99999861,-124.59979,88.894138)">
    <rect
       class="st2"
       x="129.64999"
       y="27.5"
       width="69.419998"
       height="97"
       rx="6.5300002"
       ry="6.5300002"
       transform="rotate(5,164.40943,76.00615)"
       id="rect5" />
    <rect
       class="st1"
       x="135.32001"
       y="33.169998"
       width="58.080002"
       height="85.660004"
       transform="rotate(5,164.40943,76.00615)"
       id="rect6" />
    <path
       class="st0"
       d="m 144.31,36.94 11.75,1.03 -3.45,39.43 c -0.54,6.13 -0.74,10.13 -0.61,12.01 0.24,3.26 1.26,5.85 3.07,7.77 1.81,1.93 4.32,3.03 7.53,3.31 2.72,0.24 5,-0.19 6.83,-1.28 1.83,-1.09 3.15,-2.71 3.98,-4.86 0.83,-2.15 1.55,-6.84 2.19,-14.09 l 3.52,-40.27 11.75,1.03 -3.35,38.24 c -0.85,9.77 -1.98,16.78 -3.38,21.05 -1.4,4.26 -4.01,7.59 -7.82,9.97 -3.81,2.39 -8.65,3.32 -14.51,2.81 -5.86,-0.51 -10.74,-2.07 -13.96,-4.6 -3.22,-2.53 -5.42,-5.89 -6.6,-10.09 -1.18,-4.19 -1.3,-11.73 -0.34,-22.62 l 3.4,-38.83 z"
       id="path6" />
  </g>
  <g
     id="g8"
     transform="translate(-302.11429,314.07815)">
    <rect
       class="st2"
       x="307.17001"
       y="27.5"
       width="69.419998"
       height="97"
       rx="6.5300002"
       ry="6.5300002"
       transform="rotate(5,341.90506,75.943912)"
       id="rect7" />
    <rect
       class="st1"
       x="312.84"
       y="33.169998"
       width="58.080002"
       height="85.660004"
       transform="rotate(5,341.90506,75.943912)"
       id="rect8" />
    <path
       class="st0"
       d="m 361.92,115.06 -10.15,-0.89 -2.59,-17.12 -18.56,-1.62 -5.3,16.43 -9.95,-0.87 24.53,-72.46 9.92,0.87 12.11,75.67 z m -14.66,-30.8 -4,-28.04 -8.69,26.93 z"
       id="path8" />
  </g>
  <g
     id="g10"
     transform="translate(-390.88415,426.67157)">
    <rect
       class="st2"
       x="395.94"
       y="27.5"
       width="69.419998"
       height="97"
       rx="6.5300002"
       ry="6.5300002"
       transform="rotate(-5,430.61521,76.054895)"
       id="rect9" />
    <rect
       class="st1"
       x="401.60999"
       y="33.169998"
       width="58.080002"
       height="85.660004"
       transform="rotate(-5,430.61521,76.054895)"
       id="rect10" />
    <path
       class="st0"
       d="m 444.3,84.35 10.84,3.53 c -0.93,8.15 -3.13,14.24 -6.6,18.27 -3.47,4.03 -7.98,6.28 -13.52,6.77 -6.97,0.61 -12.87,-1.84 -17.72,-7.36 -5.58,-6.37 -8.87,-15.33 -9.88,-26.89 -1.07,-12.21 0.6,-21.99 5.01,-29.33 3.84,-6.37 9.44,-9.88 16.8,-10.52 5.99,-0.52 11.21,1.28 15.63,5.42 3.16,2.94 5.68,7.49 7.56,13.66 l -10.37,4.35 c -1.02,-3.81 -2.64,-6.67 -4.86,-8.56 -2.21,-1.89 -4.7,-2.71 -7.47,-2.47 -3.95,0.35 -7.01,2.52 -9.17,6.51 -2.16,4 -2.87,10.34 -2.1,19.03 0.77,8.69 2.57,15.33 5.33,18.92 2.76,3.6 6.09,5.23 9.97,4.89 2.85,-0.25 5.2,-1.68 7.06,-4.28 1.86,-2.61 3.02,-6.59 3.48,-11.94 z"
       id="path10" />
  </g>
  <g
     id="g12"
     transform="translate(-479.64873,539.26139)">
    <rect
       class="st2"
       x="484.70001"
       y="27.5"
       width="69.419998"
       height="97"
       rx="6.5300002"
       ry="6.5300002"
       transform="rotate(5,519.40569,75.996192)"
       id="rect11" />
    <rect
       class="st1"
       x="490.37"
       y="33.169998"
       width="58.080002"
       height="85.660004"
       transform="rotate(5,519.40569,75.996192)"
       id="rect12" />
    <path
       class="st0"
       d="m 495.04,86.42 11.41,-0.38 c 0.47,9.26 4.23,14.2 11.28,14.82 3.49,0.31 6.32,-0.39 8.49,-2.09 2.17,-1.7 3.37,-3.93 3.61,-6.69 0.14,-1.63 -0.09,-3.04 -0.69,-4.24 -0.6,-1.2 -1.58,-2.23 -2.95,-3.09 -1.37,-0.86 -4.72,-2.39 -10.07,-4.59 -4.79,-1.96 -8.25,-3.93 -10.38,-5.92 -2.13,-1.99 -3.74,-4.5 -4.84,-7.53 -1.1,-3.03 -1.5,-6.22 -1.2,-9.57 0.34,-3.9 1.51,-7.34 3.52,-10.31 2,-2.97 4.6,-5.12 7.79,-6.45 3.19,-1.33 7.02,-1.8 11.5,-1.4 6.74,0.59 11.83,2.92 15.28,7 3.45,4.08 4.99,9.61 4.6,16.59 l -11.64,-0.38 c -0.17,-3.89 -1.03,-6.67 -2.58,-8.35 -1.55,-1.68 -3.88,-2.65 -7,-2.93 -3.12,-0.28 -5.57,0.18 -7.37,1.37 -1.8,1.18 -2.79,2.77 -2.96,4.75 -0.17,1.98 0.45,3.65 1.86,5.12 1.41,1.46 4.8,3.24 10.15,5.31 5.66,2.24 9.7,4.42 12.12,6.55 2.42,2.13 4.18,4.76 5.29,7.89 1.1,3.13 1.47,6.84 1.09,11.14 -0.54,6.22 -2.87,11.28 -6.97,15.18 -4.1,3.91 -10.13,5.51 -18.07,4.82 -14.04,-1.23 -21.14,-10.1 -21.3,-26.62 z"
       id="path12" />
  </g>
</svg>
