<?xml version="1.0" standalone="no"?>
<!DOCTYPE svg PUBLIC "-//W3C//DTD SVG 20010904//EN" "http://www.w3.org/TR/2001/REC-SVG-20010904/DTD/svg10.dtd">
<svg version="1.0" xmlns="http://www.w3.org/2000/svg" width="200.000000pt" height="200.000000pt" viewBox="0 0 200.000000 200.000000" preserveAspectRatio="xMidYMid meet">
  <g transform="translate(0.000000,200.000000) scale(0.100000,-0.100000)">
    <path d="M844 1766 c138 -132 140 -406 3 -406 -96 0 -149 144 -93 253 13 26
20 47 15 47 -4 0 -31 -22 -59 -50 -71 -69 -88 -113 -95 -245 -12 -221 -20
-254 -63 -241 -30 10 -45 71 -33 128 6 23 8 44 6 47 -7 7 -31 -17 -61 -61 -29
-41 -29 -42 -29 -192 0 -147 -1 -153 -31 -221 -43 -96 -57 -164 -52 -249 8
-121 64 -218 163 -281 50 -32 153 -75 179 -75 29 0 114 91 151 161 30 57 71
169 61 169 -1 0 -19 -9 -41 -20 -78 -40 -195 -14 -235 52 -25 42 -26 109 -1
163 18 39 57 79 175 179 64 54 123 138 145 204 8 24 19 41 24 39 5 -1 17 -21
25 -42 28 -72 79 -141 148 -201 121 -104 173 -162 185 -207 29 -108 -35 -197
-148 -205 -44 -2 -67 2 -97 17 -22 11 -41 19 -43 18 -7 -8 31 -116 59 -169 16
-31 54 -80 84 -108 l55 -52 66 16 c193 49 295 163 310 346 7 81 -11 155 -68
281 l-43 94 2 115 c3 168 -32 278 -105 326 l-26 16 7 -28 c4 -16 10 -56 13
-89 4 -49 2 -63 -12 -75 -29 -24 -47 0 -72 101 -68 276 -230 443 -470 487
l-52 9 53 -51z" />
  </g>
</svg>