<?xml version="1.0" encoding="UTF-8" standalone="no"?>
<svg
   version="1.1"
   viewBox="0 0 677.67 677.67"
   id="svg13"
   sodipodi:docname="logohoop.svg"
   inkscape:version="1.4 (e7c3feb100, 2024-10-09)"
   xmlns:inkscape="http://www.inkscape.org/namespaces/inkscape"
   xmlns:sodipodi="http://sodipodi.sourceforge.net/DTD/sodipodi-0.dtd"
   xmlns="http://www.w3.org/2000/svg"
   xmlns:svg="http://www.w3.org/2000/svg">
  <sodipodi:namedview
     id="namedview13"
     pagecolor="#505050"
     bordercolor="#eeeeee"
     borderopacity="1"
     inkscape:showpageshadow="0"
     inkscape:pageopacity="0"
     inkscape:pagecheckerboard="0"
     inkscape:deskcolor="#505050"
     inkscape:zoom="0.95031507"
     inkscape:cx="338.30885"
     inkscape:cy="338.83499"
     inkscape:window-width="1440"
     inkscape:window-height="891"
     inkscape:window-x="0"
     inkscape:window-y="0"
     inkscape:window-maximized="1"
     inkscape:current-layer="g13" />
  <!-- Generator: Adobe Illustrator 29.0.0, SVG Export Plug-In . SVG Version: 2.1.0 Build 186)  -->
  <defs
     id="defs1">
    <style
       id="style1">
      .st0, .st1 {
        fill: #ed2024;
      }

      .st2 {
        fill: #fff;
      }

      .st3 {
        stroke: #231f20;
      }

      .st3, .st4 {
        stroke-width: 30px;
      }

      .st3, .st4, .st1, .st5, .st6 {
        stroke-miterlimit: 10;
      }

      .st3, .st4, .st6 {
        fill: none;
      }

      .st4 {
        stroke: #ed1c24;
        stroke-dasharray: 201.93 201.93;
      }

      .st1, .st5, .st6 {
        stroke: #000;
        stroke-width: 3px;
      }

      .st5 {
        fill: #231f20;
      }
    </style>
  </defs>
  <g
     id="balls">
    <g
       id="g2">
      <circle
         class="st3"
         cx="338.87"
         cy="337.64"
         r="321.37"
         id="circle1" />
      <circle
         class="st4"
         cx="338.87"
         cy="337.64"
         r="321.37"
         id="circle2" />
    </g>
  </g>
  <g
     id="Layer_6_copy">
    <g
       id="g13">
      <g
         id="g3">
        <path
           d="M529.26,342.91s1.91,56.33-25.61,63.06c-27.52,6.73-61.45-11.01-45.86-52.28,0,0,27.06-64.66,26.14-94.01-.92-29.35-25.22-127.03-109.15-155.92,0,0,56.87,102.73-66.04,187.57,0,0-51.36-62.83-14.68-147.21,0,0-55.03,27.06-76.59,65.12s-23.52,57.93-23.85,78.42c-.16,10.01,3.45,30.5,16.75,49.3,13.3,18.8,24.06,43.34,1.59,58.93-22.47,15.59-60.54,21.55-63.52-52.97,0,0-79.8,98.37,33.02,182.98,1.41,1.06,2.8,2.07,4.18,3.08,1.22.89,2.44,1.77,3.65,2.63,106.8,76.05,144.2,18.06,144.2,5.3,0,0-38.52,27.52-59.16-4.82-20.64-32.33,61.09-85.45,64.51-115.72,3.42,30.27,85.15,83.39,64.51,115.72-20.64,32.33-59.16,4.82-59.16,4.82,0,11.55,30.64,60.16,115.64,12.89,0,0,0,0,.01,0,2.84-1.58,5.75-3.27,8.72-5.07.09-.05.18-.11.27-.16,2.93-1.78,5.92-3.68,8.97-5.69.11-.07.22-.14.33-.21,2.02-1.34,4.07-2.72,6.15-4.16.03-.02.05-.04.08-.06.1-.07.2-.13.29-.2.81-.56,1.62-1.13,2.43-1.7,0,0,0,0,0,0,.98-.69,1.96-1.38,2.94-2.1,0,0,0,0,0,0,.52-.37,1.03-.74,1.55-1.12.45-.33.9-.66,1.34-.99,0,0,0,0,0,0,1.09-.8,2.18-1.59,3.28-2.42,112.82-84.61,33.02-182.98,33.02-182.98Z"
           id="path2" />
      </g>
      <path
         class="st2"
         d="M184.05,564.93c27.06,21.97,28.77-7.06,28.77-7.06l142.64-175.71c146.71-98.87,190.7-226.18,189.46-233.39-1.24-7.21-11.09-14.72-11.09-14.72l.07.06s-9.38-8.1-16.68-7.83c-7.31.27-122.86,69.49-189.46,233.39l-142.64,175.71s-28.06,7.64-1,29.61l-.07-.06Z"
         id="path4" />
      <path
         class="st0"
         d="M355.46,382.16c146.71-98.87,190.7-226.18,189.46-233.39-1.24-7.21-11.09-14.72-11.09-14.72l.07.06s-9.38-8.1-16.68-7.83c-7.31.27-122.86,69.49-189.46,233.39"
         id="path5" />
      <path
         class="st6"
         d="M184.05,564.93c27.06,21.97,28.77-7.06,28.77-7.06l142.64-175.71c146.71-98.87,190.7-226.18,189.46-233.39-1.24-7.21-11.09-14.72-11.09-14.72l.07.06s-9.38-8.1-16.68-7.83c-7.31.27-122.86,69.49-189.46,233.39l-142.64,175.71s-28.06,7.64-1,29.61l-.07-.06Z"
         id="path6" />
      <rect
         x="317.19"
         y="369.14"
         width="37.45"
         height="16.97"
         transform="translate(313.11 -127.28) rotate(39.07)"
         id="rect6" />
      <rect
         x="186.78"
         y="531.59"
         width="33.94"
         height="16.97"
         transform="translate(385.94 -7.65) rotate(39.07)"
         id="rect7" />
      <path
         class="st2"
         d="M493.24,564.93c-27.06,21.97-28.77-7.06-28.77-7.06l-142.64-175.71c-146.71-98.87-190.7-226.18-189.46-233.39,1.24-7.21,11.09-14.72,11.09-14.72l-.07.06s9.38-8.1,16.68-7.83c7.31.27,122.86,69.49,189.46,233.39l142.64,175.71s28.06,7.64,1,29.61l.07-.06Z"
         id="path7" />
      <path
         class="st0"
         d="M321.83,382.16c-146.71-98.87-190.7-226.18-189.46-233.39,1.24-7.21,11.09-14.72,11.09-14.72l-.07.06s9.38-8.1,16.68-7.83,122.86,69.49,189.46,233.39"
         id="path8" />
      <path
         class="st6"
         d="M493.24,564.93c-27.06,21.97-28.77-7.06-28.77-7.06l-142.64-175.71c-146.71-98.87-190.7-226.18-189.46-233.39,1.24-7.21,11.09-14.72,11.09-14.72l-.07.06s9.38-8.1,16.68-7.83c7.31.27,122.86,69.49,189.46,233.39l142.64,175.71s28.06,7.64,1,29.61l.07-.06Z"
         id="path9" />
      <rect
         x="322.64"
         y="369.14"
         width="37.45"
         height="16.97"
         transform="translate(844.39 455.65) rotate(140.93)"
         id="rect9" />
      <rect
         x="456.57"
         y="531.59"
         width="33.94"
         height="16.97"
         transform="translate(1181.56 660.93) rotate(140.93)"
         id="rect10" />
      <path
         class="st5"
         d="M160.34,127.58c-1.24,7.21-11.09,14.72-11.09,14.72l.07-.06s-9.38,8.1-16.68,7.83h0c1.24-7.2,11.09-14.71,11.09-14.71l-.07.06s9.38-8.1,16.68-7.83"
         id="path10" />
      <path
         class="st5"
         d="M515.64,127.58c1.24,7.21,11.09,14.72,11.09,14.72l-.07-.06s9.38,8.1,16.68,7.83h0c-1.24-7.2-11.09-14.71-11.09-14.71l.07.06s-9.38-8.1-16.68-7.83"
         id="path11" />
      <circle
         class="st1"
         cx="324.04"
         cy="85.26"
         r="23.55"
         id="circle11" />
      <circle
         class="st1"
         cx="156.07"
         cy="306.38"
         r="23.55"
         id="circle12" />
      <circle
         class="st1"
         cx="516.84"
         cy="306.38"
         r="23.55"
         id="circle13"
         inkscape:label="circle13" />
    </g>
  </g>
</svg>
